<svg width="110" height="42" fill="none" xmlns="http://www.w3.org/2000/svg"><path id="Logo" fill-rule="evenodd" clip-rule="evenodd" d="M108.659 20.348c-.303 1.137-1.445 5.424-4.978 5.424-1.577 0-2.678-1.162-3.338-2.577 4.915-1.088 6.565-4.934 6.565-7.547 0-3.047-2.2-4.172-4.071-4.172-3.044 0-7.041 2.83-7.041 8.309 0 .508.036.98.073 1.415-1.064-.327-1.98-.871-2.604-1.814.917-4.064.77-7.947-1.137-7.947-1.064 0-1.98 1.38-1.98 4.427 0 1.197.33 2.54.953 3.737-.403 1.85-1.724 6.35-3.447 6.35-2.036 0-1.755-8.32-1.644-11.597.017-.502.03-.885.03-1.102 0-1.343-3.264-2.722-3.961-2.032-.293.29-.367 2.104-.367 4.426 0 1.923.147 4.173.587 6.277-.22 1.125-1.21 4.064-3.007 4.064-2.297 0-1.755-7.12-1.493-10.56.056-.735.1-1.301.1-1.595 0-1.197-3.118-2.322-3.889-1.596-.293.29-.513 2.43-.513 5.733 0 1.378.073 2.83.293 4.209-.293 1.45-1.467 3.81-3.337 3.81-2.995 0-1.698-11.37-.89-18.452l.01-.09c.477-.072.99-.145 1.503-.217l.321-.037c1.247-.142 2.613-.299 2.613.436 0 1.85 1.247 2.43 2.164 2.43 1.027 0 1.907-.798 1.907-2.322 0-1.487-1.32-2.902-3.63-2.902-1.54 0-3.118.181-4.658.435l.086-.9c.075-.76.134-1.36.134-1.785 0-1.56-3.264-3.084-3.924-2.43-.11.108-.55 2.575-.954 6.022-2.274.436-4.51.835-6.748.835-.77 0-.66 2.322 1.944 2.322 1.503 0 3.007-.327 4.547-.726a84.725 84.725 0 00-.366 7.584c0 2.285.146 4.281.44 5.986-.294 1.27-1.21 3.847-2.934 3.847-2.746 0-2.116-7.811-1.827-11.397.058-.724.103-1.276.103-1.557 0-.798-3.007-2.54-3.63-1.923-.074.073-.148.58-.148.58s-.403-.29-1.503-.29c-4.218 0-7.592 5.153-7.592 9.833 0 .218 0 .436.037.654-.66 1.523-2.31 4.136-5.282 4.136-1.503 0-2.567-.98-3.3-2.25 4.62-1.306 6.418-5.297 6.418-7.873 0-3.012-2.567-4.5-4.438-4.5-3.264 0-6.821 3.23-6.821 8.672 0 1.597.293 2.94.806 4.1-.586.908-1.467 1.815-2.677 1.815-2.765 0-1.737-7.531-1.276-10.908.102-.744.176-1.286.176-1.502 0-.29 0-.87-.55-1.233-.494-.36-2.678-.72-4.394-1.002a44.594 44.594 0 01-1.731-.304v-.799c0-2.177-1.357-2.648-2.274-2.648-1.504 0-1.797 1.669-1.797 2.068s.11 1.814 1.614 2.649c0 4.027-2.604 13.57-9.572 13.57-5.282 0-7.189-5.37-7.189-9.362 0-6.748 3.998-11.937 6.565-11.937 1.61 0 1.705 1.542 1.8 3.09.097 1.555.194 3.115 1.83 3.115 2.275 0 2.605-2.177 2.605-3.193 0-1.887-1.98-5.407-6.235-5.407C4.988 2.223 0 10.351 0 17.317 0 24.03 4.658 29.4 11.186 29.4c10.086 0 12.58-10.595 13.093-16.51.234.065.584.143.945.224.654.146 1.344.3 1.439.394.117.115.02.924-.119 2.095-.166 1.401-.395 3.32-.395 5.198 0 4.318 1.43 7.8 4.878 7.8 2.164 0 3.888-1.56 4.805-2.757 1.393 1.778 3.41 2.685 5.39 2.685 3.412 0 5.649-2.104 6.75-3.773.953 2.54 2.896 3.773 4.657 3.773 2.457 0 3.924-3.265 3.998-3.773.733 2.285 2.457 3.846 4.4 3.846 2.458 0 3.961-2.214 4.548-3.592.88 2.322 2.274 3.592 4.291 3.592 2.31 0 3.814-2.068 4.511-3.447.734 2.032 1.944 3.447 3.851 3.447 2.567 0 4.181-2.613 4.695-3.919.843 2.25 2.163 3.846 4.217 3.846 2.274 0 4.254-3.23 5.428-6.857a6.43 6.43 0 003.704 1.741c1.137 3.266 3.815 5.08 6.639 5.08 4.914 0 6.821-5.007 7.041-6.168.294-1.198-.843-2.613-1.21-2.25-.014.014-.04.111-.083.273zM40.709 13c2.054 0 .844 7.764-2.53 9.034-.257-.834-.367-1.632-.367-2.25C37.775 17.173 38.84 13 40.71 13zm12.507 12.336c-3.595 0-1.064-12.3 1.797-12.3 1.907 0 1.614 12.3-1.797 12.3zm49.144-12.264c1.981 0 .844 8.019-2.603 8.527a6.937 6.937 0 01-.257-1.814c0-2.613.99-6.713 2.86-6.713zM34.216 34.3h-1.194a.205.205 0 00-.186.113L30.71 38c-.111.113-.186.113-.26 0l-2.052-3.586a.205.205 0 00-.186-.113h-1.156a.256.256 0 00-.261.264v7.172c0 .15.112.264.26.264h1.157c.15 0 .26-.113.26-.264v-3.7c0-.226.225-.339.374-.15l1.603 2.642c.112.15.299.15.373 0l1.641-2.642c.15-.189.373-.076.373.15v3.7c0 .15.112.264.261.264h1.193c.15 0 .261-.113.261-.264v-7.172c-.074-.15-.186-.264-.335-.264zm8.373 0c.108 0 .18.076.217.152l3.005 7.207a.24.24 0 01-.218.341H44.4c-.109 0-.181-.076-.217-.152l-.471-1.213c-.036-.076-.109-.152-.217-.152h-3.078c-.108 0-.18.076-.217.152l-.434 1.213c-.036.076-.109.152-.217.152h-1.231a.24.24 0 01-.217-.341l3.04-7.207c.037-.076.11-.152.218-.152h1.23zm-1.376 4.703h1.557c.144 0 .29-.19.253-.34l-.796-2.087c-.073-.19-.362-.19-.435 0l-.796 2.086a.24.24 0 00.217.341zm23.167-1.495c-.07.076-.07.227 0 .302l2.565 3.813c.106.15 0 .377-.178.377h-1.354a.195.195 0 01-.178-.113l-1.78-2.718c-.072-.113-.25-.113-.357 0l-.926 1.17c0 .02-.008.047-.017.076a.306.306 0 00-.018.075v1.246c0 .113-.071.226-.214.226h-1.068c-.107 0-.214-.075-.214-.226v-7.21c0-.113.071-.226.214-.226h1.068c.107 0 .214.076.214.227v2.944c0 .226.25.34.392.15l2.457-3.245a.264.264 0 01.178-.076h1.21c.179 0 .286.227.179.378l-2.173 2.83zm12.217 2.937h-3.513a.255.255 0 01-.256-.266v-1.138c0-.151.11-.265.256-.265h2.342c.147 0 .256-.114.256-.266v-.834c0-.152-.11-.266-.256-.266h-2.342a.254.254 0 01-.256-.265v-1.1c0-.152.11-.266.256-.266h3.257a.255.255 0 00.256-.265v-.949a.255.255 0 00-.256-.265h-4.867a.255.255 0 00-.256.266v7.168c0 .152.11.266.256.266h5.123a.255.255 0 00.256-.266v-.948c.037-.227-.11-.341-.256-.341zm4.007-6.145h5.957c.11 0 .22.105.146.209v.905c0 .105-.073.21-.22.21h-1.936c-.11 0-.22.069-.22.208v5.259c0 .105-.073.209-.219.209H82.98c-.11 0-.219-.07-.219-.209v-5.259c0-.104-.073-.209-.22-.209h-1.936c-.11 0-.22-.07-.22-.209v-.905c0-.105.074-.209.22-.209zm-28.102 0c2.02 0 3.203 1.208 3.203 2.869 0 1.019-.418 1.698-.975 2.189a.31.31 0 00-.07.302l.94 2c.07.151-.034.34-.208.34h-1.219c-.105 0-.174-.075-.209-.151l-.8-1.736c-.057-.123-.114-.121-.264-.116a3.334 3.334 0 01-.12.002h-.975c-.209 0-.244.038-.244.227v1.51c0 .113-.07.226-.209.226h-1.079c-.104 0-.209-.075-.209-.226v-7.172c0-.113.07-.226.209-.226.766-.038 1.497-.038 2.229-.038zm-.175 4.236c.093-.004.186-.008.279-.008 1.08-.076 1.567-.642 1.567-1.36 0-.867-.696-1.32-1.602-1.358-.313-.038-.557-.038-.8-.038-.105 0-.21.075-.21.227V38.3c0 .113.07.227.21.227.185.025.37.016.556.008z" fill="#2E3E5C"/></svg>