<svg width="14" height="15" fill="none" xmlns="http://www.w3.org/2000/svg"><path d="M4.73 11.633c0-.055-.054-.11-.136-.11-.082 0-.137.055-.137.11s.055.11.137.082c.082 0 .136-.027.136-.082zm-.847-.137c0 .055.054.137.137.137.054.027.136 0 .164-.055 0-.055-.028-.11-.11-.137-.082-.027-.164 0-.191.055zm1.23-.027c-.082 0-.136.054-.136.136 0 .055.082.082.164.055.082-.027.136-.055.109-.11 0-.054-.082-.109-.137-.081zM6.891.969C3.117.969.219 3.867.219 7.64c0 3.035 1.886 5.632 4.62 6.562.356.055.466-.164.466-.328V12.18s-1.914.41-2.325-.82c0 0-.3-.794-.738-.985 0 0-.629-.438.028-.438 0 0 .683.055 1.066.711.602 1.067 1.586.766 1.996.575.055-.438.219-.739.438-.93-1.532-.164-3.09-.383-3.09-3.008 0-.765.218-1.12.656-1.613-.082-.192-.3-.902.082-1.86.547-.164 1.887.739 1.887.739.547-.164 1.12-.219 1.695-.219.602 0 1.176.055 1.723.219 0 0 1.312-.93 1.886-.739.383.958.137 1.668.082 1.86.438.492.711.848.711 1.613 0 2.625-1.613 2.844-3.144 3.008.246.219.465.629.465 1.285 0 .902-.028 2.05-.028 2.27 0 .191.137.41.492.328 2.735-.903 4.594-3.5 4.594-6.535 0-3.774-3.09-6.672-6.89-6.672zm-4.02 9.433c-.055.028-.027.11 0 .164.055.028.11.055.164.028.027-.028.027-.11-.027-.164-.055-.028-.11-.055-.137-.028zm-.3-.218c-.028.054 0 .082.054.109.055.027.11.027.137-.027 0-.028-.028-.055-.082-.082-.055-.028-.082-.028-.11 0zm.874.984c-.027.027-.027.11.055.164.055.055.137.082.164.027.027-.027.027-.109-.027-.164-.055-.054-.137-.082-.192-.027zm-.3-.41c-.055.027-.055.11 0 .164.054.055.109.082.164.055.027-.028.027-.11 0-.165-.055-.054-.11-.082-.164-.054z" fill="#fff"/></svg>