<svg width="109" height="36" fill="none" xmlns="http://www.w3.org/2000/svg"><path fill-rule="evenodd" clip-rule="evenodd" d="M14.057 12.686h12.754s.226.914.226 2.514c0 7.6-5.441 12.686-12.866 12.686-8.446 0-14.171-6.914-14.171-14C0 6.629 6.065-.057 13.944 0c6.178 0 9.58 3.772 9.58 3.772l-2.608 2.743s-2.494-2.743-6.802-2.743C8.559 3.772 4.138 8.229 4.138 14c0 5.886 4.648 10.114 9.976 10.114 4.138 0 8.559-2.342 9.012-7.657h-9.069v-3.771zm23.127-2.8c-5.215 0-8.956 4.114-8.956 8.914 0 4.914 3.627 9.086 9.069 9.086 4.931 0 8.899-3.714 8.899-8.971-.057-5.943-4.705-9.029-9.012-9.029zm.056 3.6c2.551 0 4.988 2.114 4.988 5.428 0 3.315-2.38 5.429-4.988 5.429-2.834 0-5.044-2.286-5.044-5.486-.057-3.085 2.154-5.371 5.044-5.371zM47.726 18.8c0-4.8 3.742-8.914 8.956-8.914 4.308 0 8.956 3.086 9.013 9.029 0 5.257-3.968 8.97-8.9 8.97-5.44 0-9.069-4.17-9.069-9.085zm14.001.114c0-3.314-2.437-5.428-4.988-5.428-2.89 0-5.101 2.286-5.045 5.371 0 3.2 2.21 5.486 5.045 5.486 2.607 0 4.988-2.114 4.988-5.428zm14.057-8.97c-4.818 0-8.559 4.228-8.559 8.97 0 5.372 4.365 9.029 8.446 9.029 2.55 0 3.854-.972 4.931-2.172v1.772c0 3.086-1.87 4.971-4.704 4.971-2.721 0-4.082-2.057-4.592-3.2l-3.457 1.429C69.039 33.314 71.476 36 75.84 36c4.761 0 8.389-3.029 8.389-9.371V10.457h-3.741V12c-1.02-1.257-2.608-2.057-4.705-2.057zm.34 3.542c2.324 0 4.762 2.057 4.762 5.486 0 3.542-2.381 5.428-4.818 5.428-2.551 0-4.932-2.114-4.932-5.371.057-3.543 2.494-5.543 4.988-5.543zm16.552 5.371c0-5.371 3.797-8.971 8.332-8.971 3.514 0 6.178 2.4 7.368 5.143l.624 1.486-11.96 5.028c.737 1.371 1.87 2.743 4.365 2.743 2.21 0 3.571-1.2 4.364-2.457l3.118 2.114c-1.361 1.828-3.741 3.943-7.482 3.943-4.478 0-8.73-3.372-8.73-9.029zm11.789-3.542c-.566-1.086-1.7-1.943-3.344-1.943-2.55 0-5.045 2.685-4.591 5.314l7.935-3.371zM90.918 27.372h-3.91V.857h3.91v26.515z" fill="#2E3E5C"/></svg>