<svg width="50" height="50" fill="none" xmlns="http://www.w3.org/2000/svg"><path d="M30.563 19.703a5.303 5.303 0 00-5.297-5.297 5.303 5.303 0 00-5.297 5.297A5.303 5.303 0 0025.266 25a5.303 5.303 0 005.297-5.297z" fill="#706FE5"/><path d="M32.531 30.906V15.578A2.581 2.581 0 0029.953 13h-9.375A2.581 2.581 0 0018 15.578v15.328h14.531zm-5.39-2.812h-3.75a.703.703 0 010-1.407h3.75a.703.703 0 110 1.407zm-5.625-8.672h.786a3.03 3.03 0 01.371-.895l-.556-.556a.703.703 0 11.994-.995l.556.556a3.03 3.03 0 01.895-.371v-.786a.703.703 0 011.407 0v.786c.32.076.622.202.895.371l.556-.556a.703.703 0 01.994.995l-.556.556c.17.273.296.574.372.895h.786a.703.703 0 110 1.406h-.786c-.076.32-.203.622-.372.895l.556.556a.703.703 0 01-.994.995l-.556-.556a3.026 3.026 0 01-.895.371v.786a.703.703 0 01-1.407 0v-.786a3.028 3.028 0 01-.895-.371l-.556.556a.7.7 0 01-.994 0 .703.703 0 010-.995l.556-.556a3.032 3.032 0 01-.371-.895h-.786a.703.703 0 010-1.406z" fill="#706FE5"/><path d="M18 32.313v2.109A2.581 2.581 0 0020.578 37h9.375a2.581 2.581 0 002.578-2.578v-2.11H18zm8.203 3.046h-1.875a.703.703 0 010-1.406h1.875a.703.703 0 010 1.406z" fill="#2E3E5C"/><rect x="22.594" y="26.641" width="5.391" height="1.453" rx=".727" fill="#706FE5"/><rect x="22.453" y="14.031" width="5.391" height="1.453" rx=".727" fill="#EAE9FB"/><rect opacity=".15" width="50" height="50" rx="12" fill="#706FE5"/></svg>