<svg width="126" height="36" fill="none" xmlns="http://www.w3.org/2000/svg"><path fill-rule="evenodd" clip-rule="evenodd" d="M30.868 32.78v-.001c-.064-.435-3.787-25.72-3.85-25.907 0-.189-.19-.252-.316-.252s-2.84-.19-2.84-.19l-2.083-2.08a.493.493 0 00-.312-.126 2.024 2.024 0 00-.364-.003l-.082.003s-.442.126-1.073.315c-.631-1.828-1.704-3.467-3.661-3.467h-.127C15.592.378 14.898 0 14.33 0 9.785 0 7.638 5.674 6.944 8.574c-1.768.568-3.03.946-3.156.946l-.064.021c-.886.295-.95.316-1.073 1.24C2.525 11.411 0 31.334 0 31.334l19.951 3.71-.003.073 10.92-2.332v-.005zM18.875 4.918c-.322.12-.669.215-1.042.317-.212.058-.433.118-.663.187v-.378c0-1.135-.189-2.018-.442-2.711 1.074.063 1.768 1.26 2.147 2.585zm-2.84.693c0-1.324-.19-2.333-.443-3.026-1.136.441-2.399 1.702-3.03 4.287 1.2-.378 2.399-.756 3.472-1.072v-.189zm-1.832-4.287c.19 0 .38.063.569.19-1.452.693-3.03 2.395-3.662 5.863a47.83 47.83 0 01-2.187.652h-.001l-.59.167c.821-2.648 2.652-6.872 5.871-6.872zM16.35 12.61l-1.326 3.971s-1.2-.63-2.588-.63c-2.083 0-2.21 1.324-2.21 1.64 0 .725.746 1.272 1.645 1.931 1.367 1.003 3.09 2.266 3.09 4.814 0 3.342-2.146 5.485-4.987 5.485-3.409 0-5.176-2.143-5.176-2.143l.883-3.027s1.831 1.577 3.346 1.577c1.01 0 1.389-.757 1.389-1.387 0-1.052-.755-1.655-1.601-2.33-1.082-.863-2.313-1.846-2.313-4.038 0-3.279 2.336-6.431 7.133-6.431 1.83 0 2.715.568 2.715.568zm91.912 1.45h2.966l-.568 3.089h-2.967l-2.272 11.916h-4.293l2.273-11.853h-2.02l.631-3.216h2.02l.126-.693c.316-1.765 1.01-3.53 2.462-4.792 1.137-1.008 2.652-1.45 4.167-1.45 1.578 0 2.335.379 2.335.379l-.82 3.341s-.632-.19-1.389-.19c-1.389 0-2.273 1.325-2.525 2.775l-.126.694zm-49.428-.316c-1.894 0-3.346.883-4.545 2.27h-.064l1.642-8.637h-4.293L47.408 29.19H51.7l1.452-7.44c.568-2.837 2.02-4.54 3.346-4.54.947 0 1.326.631 1.326 1.577 0 .567-.063 1.324-.19 1.892l-1.641 8.51h4.356l1.704-8.826c.19-.945.316-2.017.316-2.774-.063-2.396-1.326-3.846-3.535-3.846zM43.557 20.05c-1.073-.567-1.641-1.072-1.641-1.765 0-.883.757-1.45 2.02-1.45 1.389 0 2.651.567 2.651.567l1.01-3.026s-.884-.694-3.598-.694c-3.724 0-6.313 2.144-6.313 5.107 0 1.702 1.2 3.026 2.841 3.909 1.326.757 1.768 1.261 1.768 2.018 0 .82-.632 1.45-1.894 1.45-1.83 0-3.472-.946-3.472-.946l-1.073 3.026s1.578 1.072 4.23 1.072c3.85 0 6.564-1.891 6.564-5.296-.063-1.702-1.452-2.963-3.093-3.972zm19.885 3.468c0-5.107 3.409-9.773 8.522-9.773 3.977 0 5.808 2.837 5.808 5.99 0 5.233-3.41 9.772-8.46 9.772-3.85 0-5.87-2.648-5.87-5.99zm6.439 2.648c-1.452 0-2.083-1.261-2.083-2.774 0-2.46 1.262-6.431 3.598-6.431 1.515 0 2.02 1.324 2.02 2.585-.063 2.585-1.326 6.62-3.535 6.62zm14.266-9.899s1.642-2.522 4.545-2.522c3.094 0 4.356 2.522 4.356 5.422 0 5.233-3.282 10.34-8.27 10.34-1.64 0-2.525-.567-2.525-.567h-.063l-1.199 6.304h-4.23l2.904-15.572c.38-1.766.695-4.098.884-5.675h3.788l-.253 2.27h.063zm.442 9.899c-1.136 0-1.767-.63-1.767-.63l.694-3.973c.505-2.648 1.894-4.413 3.346-4.413 1.325 0 1.704 1.198 1.704 2.333.063 2.837-1.578 6.683-3.977 6.683zm12.12-16.14c0-1.388 1.074-2.46 2.462-2.46 1.263 0 2.147.946 2.147 2.144-.063 1.577-1.2 2.46-2.525 2.46h-.064c-1.199 0-2.02-.883-2.02-2.145zm-3.535 19.04h4.293l2.904-15.132h-4.293l-2.904 15.132zm28.281-15.006s-2.651 6.747-3.851 10.403h-.063c-.063-1.198-1.073-10.402-1.073-10.402h-4.482l2.588 13.87c.063.315 0 .504-.063.694a7.535 7.535 0 01-2.336 2.584c-.82.568-1.704.946-2.398 1.198L110.976 36c.884-.19 2.651-.883 4.166-2.333 1.957-1.828 3.725-4.665 5.619-8.448L126 14.059h-4.545z" fill="#2E3E5C"/></svg>