<svg width="116" height="36" fill="none" xmlns="http://www.w3.org/2000/svg"><path fill-rule="evenodd" clip-rule="evenodd" d="M61.162 9.029a2.39 2.39 0 01-2.384 2.373 2.352 2.352 0 01-2.384-2.373c0-1.331.988-2.373 2.384-2.373 1.395.116 2.384 1.158 2.384 2.373zm-9.711 4.746v.579s-1.105-1.447-3.49-1.447c-3.954 0-7.036 3.01-7.036 7.119s3.024 7.119 7.037 7.119c2.442 0 3.489-1.505 3.489-1.505v.636c0 .29.232.521.523.521h2.908V13.254h-2.908c-.29 0-.523.29-.523.52zm0 8.682c-.524.81-1.629 1.504-2.908 1.504-2.326 0-4.07-1.446-4.07-3.877s1.802-3.878 4.07-3.878c1.28 0 2.442.694 2.908 1.505v4.746zm5.64-9.203h3.49v13.543h-3.49V13.254zm51.93-.347c-2.384 0-3.489 1.447-3.489 1.447V6.772h-3.489v20.083h2.907a.52.52 0 00.524-.52v-.637s1.105 1.505 3.489 1.505c3.954 0 7.036-3.01 7.036-7.12.058-4.167-3.024-7.176-6.978-7.176zm-.582 10.997c-1.337 0-2.384-.695-2.907-1.505v-4.862c.523-.695 1.686-1.505 2.907-1.505 2.327 0 4.071 1.447 4.071 3.878 0 2.43-1.744 3.994-4.071 3.994zm-8.199-5.094v8.103h-3.49v-7.698c0-2.257-.697-3.125-2.674-3.125-1.047 0-2.152.52-2.85 1.331v9.434h-3.489V13.254h2.734a.52.52 0 01.523.52v.58c.989-1.042 2.384-1.447 3.722-1.447 1.512 0 2.79.405 3.78 1.273 1.279 1.042 1.744 2.315 1.744 4.63zm-20.935-5.903c-2.384 0-3.489 1.447-3.489 1.447V6.772h-3.489v20.083h2.908a.52.52 0 00.523-.52v-.637s1.105 1.505 3.49 1.505c3.954 0 7.036-3.01 7.036-7.12.058-4.167-3.024-7.176-6.979-7.176zm-.581 10.997c-1.338 0-2.384-.695-2.908-1.505v-4.862c.524-.695 1.687-1.505 2.908-1.505 2.326 0 4.07 1.447 4.07 3.878 0 2.43-1.744 3.994-4.07 3.994zm-9.42-10.997c1.046 0 1.57.173 1.57.173v3.184s-2.908-.984-4.71 1.1v9.491h-3.49V13.254h2.908a.52.52 0 01.523.52v.58c.698-.753 2.151-1.447 3.198-1.447zM33.19 25.64c-.175-.405-.349-.926-.523-1.273-.291-.637-.582-1.274-.814-1.852l-.059-.058c-2.5-5.383-5.175-10.881-8.025-16.322l-.116-.231c-.29-.521-.581-1.1-.872-1.679-.35-.637-.698-1.331-1.28-1.968C20.34.81 18.654 0 16.91 0c-1.803 0-3.431.81-4.653 2.141a10.14 10.14 0 00-1.337 2.026 43.17 43.17 0 01-.873 1.679l-.116.231C7.14 11.46 4.406 16.958 1.905 22.4l-.058.058a45.03 45.03 0 01-.814 1.852c-.174.405-.349.81-.523 1.273-.466 1.331-.64 2.604-.407 3.878.407 2.72 2.21 4.977 4.71 5.961.93.405 1.919.579 2.907.579.291 0 .64-.058.93-.058 1.222-.116 2.443-.52 3.606-1.215 1.512-.81 2.908-2.026 4.478-3.762 1.57 1.736 3.024 2.893 4.478 3.762 1.22.694 2.442 1.1 3.605 1.215.29.058.64.058.93.058.99 0 2.036-.174 2.908-.579 2.559-.984 4.303-3.299 4.71-5.961.407-1.274.291-2.489-.174-3.82zm-16.34 1.852c-1.978-2.43-3.199-4.746-3.664-6.714-.175-.81-.233-1.563-.117-2.2a3.158 3.158 0 01.582-1.504c.698-.984 1.86-1.563 3.198-1.563 1.338 0 2.559.579 3.199 1.563.29.405.523.926.581 1.505.117.636.058 1.389-.116 2.2-.465 1.91-1.745 4.224-3.664 6.713zm14.421 1.678c-.233 1.852-1.512 3.473-3.315 4.225-.872.348-1.802.463-2.733.348-.93-.116-1.802-.405-2.733-.926-1.28-.695-2.617-1.852-4.129-3.473 2.385-2.894 3.838-5.614 4.362-7.987.232-1.1.29-2.142.174-3.068a5.03 5.03 0 00-.988-2.43c-1.105-1.621-3.024-2.547-5.118-2.547-2.093 0-4.012.984-5.117 2.546-.524.695-.814 1.563-.989 2.431-.116.926-.116 1.968.175 3.068.523 2.373 2.035 5.093 4.361 7.987-1.512 1.678-2.85 2.778-4.129 3.473-.93.52-1.86.81-2.733.926-.988.115-1.919-.058-2.733-.348-1.803-.694-3.024-2.373-3.315-4.225a5.47 5.47 0 01.35-2.836c.116-.347.29-.694.464-1.157.233-.579.524-1.216.815-1.794l.058-.058c2.5-5.383 5.175-10.881 7.967-16.206l.116-.232c.29-.52.581-1.1.872-1.678.29-.579.64-1.1.989-1.563a3.822 3.822 0 012.907-1.33c1.105 0 2.152.462 2.908 1.33.407.463.698.984.989 1.563.29.52.581 1.1.872 1.678l.116.232a590.14 590.14 0 017.909 16.206v.058c.29.578.523 1.215.814 1.794.174.405.349.81.465 1.157.407.984.523 1.91.349 2.836z" fill="#2E3E5C"/></svg>