<svg width="119" height="37" fill="none" xmlns="http://www.w3.org/2000/svg"><path fill-rule="evenodd" clip-rule="evenodd" d="M17.483 17.983c-.09-.13-.18-.256-.27-.381-.564-.778-1.093-1.508-1.093-2.983V8.894c0-.203.002-.405.003-.605.013-2.178.026-4.142-1.603-5.71C13.098 1.223 10.786.75 9.008.75 5.512.75 1.6 2.048.771 6.357c-.06.472.237.708.533.767l3.556.354c.355 0 .593-.354.652-.65.296-1.475 1.54-2.183 2.963-2.183.77 0 1.6.295 2.074.944.453.65.436 1.47.42 2.245-.002.139-.005.276-.005.411v.472c-.292.033-.596.064-.91.096-1.97.202-4.277.439-5.965 1.203-2.31 1.003-3.97 3.01-3.97 6.02 0 3.776 2.43 5.724 5.511 5.724 2.608 0 4.03-.59 6.045-2.656.084.12.16.234.233.341.496.733.816 1.204 1.901 2.079.296.118.652.118.889-.06a103.59 103.59 0 012.785-2.419c.297-.295.238-.708 0-1.062zm-7.23-1.594c-.593 1.004-1.482 1.653-2.548 1.653-1.423 0-2.252-1.063-2.252-2.656 0-3.128 2.785-3.659 5.452-3.659v.767l.002.05c.059 1.394.107 2.562-.654 3.845zm47.925-7.517c.313-.032.617-.063.91-.096l.118-.413.001-.242c.005-.822.01-1.716-.475-2.414-.474-.649-1.304-.944-2.074-.944-1.422 0-2.667.708-2.963 2.184-.06.295-.297.649-.652.649l-3.556-.354c-.297-.06-.593-.295-.534-.767.83-4.309 4.742-5.607 8.238-5.607 1.778 0 4.09.472 5.512 1.83 1.628 1.567 1.616 3.53 1.603 5.71v.001c-.002.2-.003.4-.003.603v5.725c0 1.475.529 2.205 1.092 2.983.09.125.181.25.271.38.237.296.297.709 0 .945-.711.59-2.074 1.77-2.785 2.42-.237.177-.593.177-.89.059-1.085-.875-1.404-1.346-1.9-2.079l-.233-.34c-2.015 2.065-3.437 2.655-6.045 2.655-3.082 0-5.512-1.948-5.512-5.725 0-2.95 1.6-4.957 3.912-5.96 1.688-.764 3.994-1 5.965-1.203zm-2.29 9.17c1.007 0 1.955-.65 2.548-1.653.66-1.204.656-2.307.652-3.591v-1.071c-2.667 0-5.453.531-5.453 3.66 0 1.593.83 2.655 2.252 2.655zm-31.174 3.423h-3.675c-.355-.06-.652-.295-.71-.65V1.99c0-.354.296-.649.71-.649h3.438c.355.06.652.295.652.65v2.478h.059c.948-2.36 2.608-3.482 4.86-3.482 2.252 0 3.733 1.121 4.74 3.482.89-2.36 2.905-3.482 5.098-3.482 1.54 0 3.26.65 4.267 2.066 1.018 1.368.987 3.258.958 5.036-.005.292-.01.582-.01.865v11.863c0 .354-.296.649-.711.649h-3.675a.656.656 0 01-.652-.65v-9.973c0-.145.002-.325.004-.526.01-.947.025-2.383-.122-3.015-.237-1.24-1.067-1.594-2.133-1.594-.89 0-1.838.59-2.193 1.535-.37.843-.363 2.205-.357 3.243l.001.357v9.974c0 .354-.296.649-.711.649h-3.675a.656.656 0 01-.651-.65v-9.973c0-.222.003-.454.007-.692.034-2.04.076-4.502-2.26-4.502-2.559 0-2.553 2.772-2.548 4.926v10.242c0 .354-.296.649-.711.649zm57.19-5.076c-2.133-1.18-4.563-1.534-6.874-1.475l6.282-8.912c.593-.826.89-1.298.89-1.711V1.989c0-.413-.297-.649-.712-.649H69.4a.656.656 0 00-.652.65v2.655c0 .413.296.65.711.65h6.282l-7.23 10.327c-.415.65-.415 1.416-.415 1.83v2.714c0 .413.415.827.83.59 4.09-2.183 9.008-1.947 12.742 0 .474.237.889-.236.889-.59v-2.891c-.06-.236-.178-.65-.652-.886zM68.57 25.124c-.711.059-.77-.531-.178-.944 3.912-2.774 10.431-1.948 11.142-.945.77.886-.237 7.377-3.911 10.446-.534.472-1.067.236-.83-.413l.043-.106c.85-2.115 2.668-6.64 1.794-7.743-.854-1.078-5.483-.575-7.79-.325l-.27.03zM48.953 31.91c7.646 0 16.061-1.594 23.766-4.84 1.185-.53 2.133.708.948 1.653-6.875 5.016-16.89 7.73-25.484 7.73-12.031 0-22.877-4.425-31.114-11.802-.652-.59-.06-1.417.71-.945 8.89 5.135 19.855 8.204 31.174 8.204zm35.382-20.538c0-5.843 2.904-10.387 8.238-10.387 5.452 0 8.356 4.662 8.415 10.564 0 5.725-3.26 10.269-8.415 10.269-5.334 0-8.238-4.662-8.238-10.446zm5.393-.455c-.001 2.353-.003 7.065 2.845 7.065 2.844 0 2.963-3.954 3.022-6.374 0-1.534-.059-3.482-.533-4.957-.415-1.299-1.245-1.83-2.43-1.83-2.726 0-2.904 3.66-2.904 5.96v.136zm18.846-6.155c1.008-2.538 2.43-3.777 4.979-3.777 1.6 0 3.2.59 4.326 2.302.948 1.475.948 4.013.948 5.842v11.804a.703.703 0 01-.711.59h-3.674c-.356 0-.593-.295-.652-.59v-10.21l.003-.49c.017-2.02.038-4.586-2.315-4.586-.889 0-1.718.59-2.133 1.476-.534 1.121-.593 2.301-.593 3.54v10.093c0 .354-.296.649-.711.649h-3.674a.656.656 0 01-.652-.65V1.99c.059-.295.355-.59.711-.59h3.378c.296 0 .593.236.652.531v2.833h.118z" fill="#2E3E5C"/></svg>