<svg width="13" height="13" fill="none" xmlns="http://www.w3.org/2000/svg"><path d="M6.5 3.605A3.145 3.145 0 003.355 6.75 3.128 3.128 0 006.5 9.895 3.145 3.145 0 009.645 6.75 3.163 3.163 0 006.5 3.605zm0 5.196A2.048 2.048 0 014.45 6.75c0-1.121.902-2.023 2.05-2.023 1.121 0 2.023.902 2.023 2.023 0 1.148-.902 2.05-2.023 2.05zm3.992-5.305a.735.735 0 00-.738-.738.735.735 0 00-.738.738c0 .41.328.738.738.738s.738-.328.738-.738zm2.078.738c-.054-.984-.273-1.859-.984-2.57C10.875.954 10 .734 9.016.68 8.004.625 4.969.625 3.957.68c-.984.054-1.832.273-2.57.984-.711.711-.93 1.586-.985 2.57-.054 1.012-.054 4.047 0 5.059.055.984.274 1.832.985 2.57.738.711 1.586.93 2.57.985 1.012.054 4.047.054 5.059 0 .984-.055 1.859-.274 2.57-.985.71-.738.93-1.586.984-2.57.055-1.012.055-4.047 0-5.059zm-1.312 6.125c-.192.547-.63.957-1.149 1.176-.82.328-2.734.246-3.609.246-.902 0-2.816.082-3.61-.246a2.074 2.074 0 01-1.175-1.176c-.328-.793-.246-2.707-.246-3.609 0-.875-.082-2.79.246-3.61A2.11 2.11 0 012.89 1.993c.793-.328 2.707-.246 3.609-.246.875 0 2.79-.082 3.61.246.519.192.93.63 1.148 1.149.328.82.246 2.734.246 3.609 0 .902.082 2.816-.246 3.61z" fill="#fff"/></svg>