<svg width="49" height="50" fill="none" xmlns="http://www.w3.org/2000/svg"><rect opacity=".15" x="-1" width="50" height="50" rx="12" fill="#706FE5"/><path d="M12.947 27.898a.947.947 0 110-1.895h22.106a.947.947 0 010 1.895H12.947zm11.056-5.057a4.42 4.42 0 110-8.841 4.42 4.42 0 010 8.841z" fill="#706FE5"/><path d="M24.003 19.052a.631.631 0 100-1.263.631.631 0 000 1.263z" fill="#706FE5"/><path d="M21.476 23.514c-1.604 2.92-6.148 11.24-6.362 11.63a.631.631 0 01-.868.244A4.445 4.445 0 0112.6 29.3l5.761-10.16a5.688 5.688 0 003.114 4.374zm8.164-4.378l5.759 10.16a4.449 4.449 0 01-1.64 6.092.632.632 0 01-.868-.245 4034.807 4034.807 0 00-6.36-11.632 5.688 5.688 0 003.109-4.375z" fill="#2E3E5C"/></svg>