<svg width="374" height="132" fill="none" xmlns="http://www.w3.org/2000/svg"><path d="M84.82 53.036c0 2.44-.56 4.68-1.68 6.72-1.12 2-2.84 3.62-5.16 4.86-2.32 1.24-5.2 1.86-8.64 1.86h-6.36v15.12H52.72v-42.12h16.62c3.36 0 6.2.58 8.52 1.74 2.32 1.16 4.06 2.76 5.22 4.8 1.16 2.04 1.74 4.38 1.74 7.02zm-16.26 5.28c1.96 0 3.42-.46 4.38-1.38.96-.92 1.44-2.22 1.44-3.9 0-1.68-.48-2.98-1.44-3.9-.96-.92-2.42-1.38-4.38-1.38h-5.58v10.56h5.58zm32.061-4.62c1.2-1.84 2.7-3.28 4.5-4.32 1.8-1.08 3.8-1.62 6-1.62v10.86h-2.82c-2.56 0-4.48.56-5.76 1.68-1.28 1.08-1.92 3-1.92 5.76v15.54h-10.26v-33.48h10.26v5.58zm30.844 28.38c-3.28 0-6.24-.7-8.88-2.1-2.6-1.4-4.66-3.4-6.18-6-1.48-2.6-2.22-5.64-2.22-9.12 0-3.44.76-6.46 2.28-9.06 1.52-2.64 3.6-4.66 6.24-6.06 2.64-1.4 5.6-2.1 8.88-2.1 3.28 0 6.24.7 8.88 2.1 2.64 1.4 4.72 3.42 6.24 6.06 1.52 2.6 2.28 5.62 2.28 9.06 0 3.44-.78 6.48-2.34 9.12-1.52 2.6-3.62 4.6-6.3 6-2.64 1.4-5.6 2.1-8.88 2.1zm0-8.88c1.96 0 3.62-.72 4.98-2.16 1.4-1.44 2.1-3.5 2.1-6.18 0-2.68-.68-4.74-2.04-6.18-1.32-1.44-2.96-2.16-4.92-2.16-2 0-3.66.72-4.98 2.16-1.32 1.4-1.98 3.46-1.98 6.18 0 2.68.64 4.74 1.92 6.18 1.32 1.44 2.96 2.16 4.92 2.16zm21.124-8.4c0-3.44.64-6.46 1.92-9.06 1.32-2.6 3.1-4.6 5.34-6 2.24-1.4 4.74-2.1 7.5-2.1 2.2 0 4.2.46 6 1.38 1.84.92 3.28 2.16 4.32 3.72v-15.54h10.26v44.4h-10.26v-4.8c-.96 1.6-2.34 2.88-4.14 3.84-1.76.96-3.82 1.44-6.18 1.44-2.76 0-5.26-.7-7.5-2.1-2.24-1.44-4.02-3.46-5.34-6.06-1.28-2.64-1.92-5.68-1.92-9.12zm25.08.06c0-2.56-.72-4.58-2.16-6.06-1.4-1.48-3.12-2.22-5.16-2.22s-3.78.74-5.22 2.22c-1.4 1.44-2.1 3.44-2.1 6s.7 4.6 2.1 6.12c1.44 1.48 3.18 2.22 5.22 2.22 2.04 0 3.76-.74 5.16-2.22 1.44-1.48 2.16-3.5 2.16-6.06zm50.942-16.74v33.48h-10.26v-4.56c-1.04 1.48-2.46 2.68-4.26 3.6-1.76.88-3.72 1.32-5.88 1.32-2.56 0-4.82-.56-6.78-1.68-1.96-1.16-3.48-2.82-4.56-4.98-1.08-2.16-1.62-4.7-1.62-7.62v-19.56h10.2v18.18c0 2.24.58 3.98 1.74 5.22 1.16 1.24 2.72 1.86 4.68 1.86 2 0 3.58-.62 4.74-1.86 1.16-1.24 1.74-2.98 1.74-5.22v-18.18h10.26zm5.53 16.74c0-3.48.7-6.52 2.1-9.12 1.44-2.6 3.42-4.6 5.94-6 2.56-1.4 5.48-2.1 8.76-2.1 4.2 0 7.7 1.1 10.5 3.3 2.84 2.2 4.7 5.3 5.58 9.3h-10.92c-.92-2.56-2.7-3.84-5.34-3.84-1.88 0-3.38.74-4.5 2.22-1.12 1.44-1.68 3.52-1.68 6.24s.56 4.82 1.68 6.3c1.12 1.44 2.62 2.16 4.5 2.16 2.64 0 4.42-1.28 5.34-3.84h10.92c-.88 3.92-2.74 7-5.58 9.24s-6.34 3.36-10.5 3.36c-3.28 0-6.2-.7-8.76-2.1-2.52-1.4-4.5-3.4-5.94-6-1.4-2.6-2.1-5.64-2.1-9.12zm57.228 8.04v8.7h-5.22c-3.72 0-6.62-.9-8.7-2.7-2.08-1.84-3.12-4.82-3.12-8.94v-13.32h-4.08v-8.52h4.08v-8.16h10.26v8.16h6.72v8.52h-6.72v13.44c0 1 .24 1.72.72 2.16.48.44 1.28.66 2.4.66h3.66zm19.535 9.18c-2.92 0-5.52-.5-7.8-1.5-2.28-1-4.08-2.36-5.4-4.08-1.32-1.76-2.06-3.72-2.22-5.88h10.14c.12 1.16.66 2.1 1.62 2.82.96.72 2.14 1.08 3.54 1.08 1.28 0 2.26-.24 2.94-.72.72-.52 1.08-1.18 1.08-1.98 0-.96-.5-1.66-1.5-2.1-1-.48-2.62-1-4.86-1.56-2.4-.56-4.4-1.14-6-1.74-1.6-.64-2.98-1.62-4.14-2.94-1.16-1.36-1.74-3.18-1.74-5.46 0-1.92.52-3.66 1.56-5.22 1.08-1.6 2.64-2.86 4.68-3.78 2.08-.92 4.54-1.38 7.38-1.38 4.2 0 7.5 1.04 9.9 3.12 2.44 2.08 3.84 4.84 4.2 8.28h-9.48c-.16-1.16-.68-2.08-1.56-2.76-.84-.68-1.96-1.02-3.36-1.02-1.2 0-2.12.24-2.76.72-.64.44-.96 1.06-.96 1.86 0 .96.5 1.68 1.5 2.16 1.04.48 2.64.96 4.8 1.44 2.48.64 4.5 1.28 6.06 1.92 1.56.6 2.92 1.6 4.08 3 1.2 1.36 1.82 3.2 1.86 5.52 0 1.96-.56 3.72-1.68 5.28-1.08 1.52-2.66 2.72-4.74 3.6-2.04.88-4.42 1.32-7.14 1.32z" fill="#706FE5"/><path stroke="#706FE5" stroke-width="8" d="M15 15h346v101H15z"/><circle cx="14" cy="118" r="10" fill="#fff" stroke="#706FE5" stroke-width="8"/><circle cx="360" cy="118" r="10" fill="#fff" stroke="#706FE5" stroke-width="8"/><circle cx="14" cy="14" r="10" fill="#fff" stroke="#706FE5" stroke-width="8"/><circle cx="360" cy="14" r="10" fill="#fff" stroke="#706FE5" stroke-width="8"/></svg>