<svg width="94" height="38" fill="none" xmlns="http://www.w3.org/2000/svg"><path d="M24.328 14.576c0 .976-.224 1.872-.672 2.688-.448.8-1.136 1.448-2.064 1.944-.928.496-2.08.744-3.456.744h-2.544V26h-4.104V9.152h6.648c1.344 0 2.48.232 3.408.696.928.464 1.624 1.104 2.088 1.92.464.816.696 1.752.696 2.808zm-6.504 2.112c.784 0 1.368-.184 1.752-.552.384-.368.576-.888.576-1.56s-.192-1.192-.576-1.56c-.384-.368-.968-.552-1.752-.552h-2.232v4.224h2.232zm14.812 9.504c-1.312 0-2.496-.28-3.552-.84a6.253 6.253 0 01-2.472-2.4c-.592-1.04-.888-2.256-.888-3.648 0-1.376.304-2.584.912-3.624a6.166 6.166 0 012.496-2.424c1.056-.56 2.24-.84 3.552-.84 1.312 0 2.496.28 3.552.84a6.166 6.166 0 012.496 2.424c.608 1.04.912 2.248.912 3.624s-.312 2.592-.936 3.648a6.172 6.172 0 01-2.52 2.4c-1.056.56-2.24.84-3.552.84zm0-3.552c.784 0 1.448-.288 1.992-.864.56-.576.84-1.4.84-2.472s-.272-1.896-.816-2.472a2.561 2.561 0 00-1.968-.864c-.8 0-1.464.288-1.992.864-.528.56-.792 1.384-.792 2.472 0 1.072.256 1.896.768 2.472a2.561 2.561 0 001.968.864zM61.12 12.608L57.496 26H52.96l-2.112-8.688L48.664 26h-4.512l-3.648-13.392h4.104l1.896 9.576 2.256-9.576h4.344l2.28 9.528 1.872-9.528h3.864zm14.264 6.48c0 .384-.024.784-.072 1.2h-9.288c.064.832.328 1.472.792 1.92.48.432 1.064.648 1.752.648 1.024 0 1.736-.432 2.136-1.296h4.368a5.916 5.916 0 01-1.224 2.376 5.958 5.958 0 01-2.184 1.656c-.88.4-1.864.6-2.952.6-1.312 0-2.48-.28-3.504-.84a5.975 5.975 0 01-2.4-2.4c-.576-1.04-.864-2.256-.864-3.648 0-1.392.28-2.608.84-3.648a5.975 5.975 0 012.4-2.4c1.024-.56 2.2-.84 3.528-.84 1.296 0 2.448.272 3.456.816a5.781 5.781 0 012.352 2.328c.576 1.008.864 2.184.864 3.528zm-4.2-1.08c0-.704-.24-1.264-.72-1.68-.48-.416-1.08-.624-1.8-.624-.688 0-1.272.2-1.752.6-.464.4-.752.968-.864 1.704h5.136zm10.544-3.168a5.3 5.3 0 011.8-1.728 4.576 4.576 0 012.4-.648v4.344H84.8c-1.024 0-1.792.224-2.304.672-.512.432-.768 1.2-.768 2.304V26h-4.104V12.608h4.104v2.232z" fill="#1E1F4B"/><circle cx="91" cy="24" r="3" fill="#706FE5"/><path d="M16 30a8 8 0 11-8-8v8h8z" fill="#706FE5"/></svg>