<svg width="374" height="132" viewBox="0 0 374 132" fill="none" xmlns="http://www.w3.org/2000/svg">
<path d="M84.82 53.0364C84.82 55.4764 84.26 57.7164 83.14 59.7564C82.02 61.7564 80.3 63.3764 77.98 64.6164C75.66 65.8564 72.78 66.4764 69.34 66.4764H62.98V81.5964H52.72V39.4764H69.34C72.7 39.4764 75.54 40.0564 77.86 41.2164C80.18 42.3764 81.92 43.9764 83.08 46.0164C84.24 48.0564 84.82 50.3964 84.82 53.0364ZM68.56 58.3164C70.52 58.3164 71.98 57.8564 72.94 56.9364C73.9 56.0164 74.38 54.7164 74.38 53.0364C74.38 51.3564 73.9 50.0564 72.94 49.1364C71.98 48.2164 70.52 47.7564 68.56 47.7564H62.98V58.3164H68.56ZM100.621 53.6964C101.821 51.8564 103.321 50.4164 105.121 49.3764C106.921 48.2964 108.921 47.7564 111.121 47.7564V58.6164H108.301C105.741 58.6164 103.821 59.1764 102.541 60.2964C101.261 61.3764 100.621 63.2964 100.621 66.0564V81.5964H90.3614V48.1164H100.621V53.6964ZM131.465 82.0764C128.185 82.0764 125.225 81.3764 122.585 79.9764C119.985 78.5764 117.925 76.5764 116.405 73.9764C114.925 71.3764 114.185 68.3364 114.185 64.8564C114.185 61.4164 114.945 58.3964 116.465 55.7964C117.985 53.1564 120.065 51.1364 122.705 49.7364C125.345 48.3364 128.305 47.6364 131.585 47.6364C134.865 47.6364 137.825 48.3364 140.465 49.7364C143.105 51.1364 145.185 53.1564 146.705 55.7964C148.225 58.3964 148.985 61.4164 148.985 64.8564C148.985 68.2964 148.205 71.3364 146.645 73.9764C145.125 76.5764 143.025 78.5764 140.345 79.9764C137.705 81.3764 134.745 82.0764 131.465 82.0764ZM131.465 73.1964C133.425 73.1964 135.085 72.4764 136.445 71.0364C137.845 69.5964 138.545 67.5364 138.545 64.8564C138.545 62.1764 137.865 60.1164 136.505 58.6764C135.185 57.2364 133.545 56.5164 131.585 56.5164C129.585 56.5164 127.925 57.2364 126.605 58.6764C125.285 60.0764 124.625 62.1364 124.625 64.8564C124.625 67.5364 125.265 69.5964 126.545 71.0364C127.865 72.4764 129.505 73.1964 131.465 73.1964ZM152.589 64.7964C152.589 61.3564 153.229 58.3364 154.509 55.7364C155.829 53.1364 157.609 51.1364 159.849 49.7364C162.089 48.3364 164.589 47.6364 167.349 47.6364C169.549 47.6364 171.549 48.0964 173.349 49.0164C175.189 49.9364 176.629 51.1764 177.669 52.7364V37.1964H187.929V81.5964H177.669V76.7964C176.709 78.3964 175.329 79.6764 173.529 80.6364C171.769 81.5964 169.709 82.0764 167.349 82.0764C164.589 82.0764 162.089 81.3764 159.849 79.9764C157.609 78.5364 155.829 76.5164 154.509 73.9164C153.229 71.2764 152.589 68.2364 152.589 64.7964ZM177.669 64.8564C177.669 62.2964 176.949 60.2764 175.509 58.7964C174.109 57.3164 172.389 56.5764 170.349 56.5764C168.309 56.5764 166.569 57.3164 165.129 58.7964C163.729 60.2364 163.029 62.2364 163.029 64.7964C163.029 67.3564 163.729 69.3964 165.129 70.9164C166.569 72.3964 168.309 73.1364 170.349 73.1364C172.389 73.1364 174.109 72.3964 175.509 70.9164C176.949 69.4364 177.669 67.4164 177.669 64.8564ZM228.611 48.1164V81.5964H218.351V77.0364C217.311 78.5164 215.891 79.7164 214.091 80.6364C212.331 81.5164 210.371 81.9564 208.211 81.9564C205.651 81.9564 203.391 81.3964 201.431 80.2764C199.471 79.1164 197.951 77.4564 196.871 75.2964C195.791 73.1364 195.251 70.5964 195.251 67.6764V48.1164H205.451V66.2964C205.451 68.5364 206.031 70.2764 207.191 71.5164C208.351 72.7564 209.911 73.3764 211.871 73.3764C213.871 73.3764 215.451 72.7564 216.611 71.5164C217.771 70.2764 218.351 68.5364 218.351 66.2964V48.1164H228.611ZM234.141 64.8564C234.141 61.3764 234.841 58.3364 236.241 55.7364C237.681 53.1364 239.661 51.1364 242.181 49.7364C244.741 48.3364 247.661 47.6364 250.941 47.6364C255.141 47.6364 258.641 48.7364 261.441 50.9364C264.281 53.1364 266.141 56.2364 267.021 60.2364H256.101C255.181 57.6764 253.401 56.3964 250.761 56.3964C248.881 56.3964 247.381 57.1364 246.261 58.6164C245.141 60.0564 244.581 62.1364 244.581 64.8564C244.581 67.5764 245.141 69.6764 246.261 71.1564C247.381 72.5964 248.881 73.3164 250.761 73.3164C253.401 73.3164 255.181 72.0364 256.101 69.4764H267.021C266.141 73.3964 264.281 76.4764 261.441 78.7164C258.601 80.9564 255.101 82.0764 250.941 82.0764C247.661 82.0764 244.741 81.3764 242.181 79.9764C239.661 78.5764 237.681 76.5764 236.241 73.9764C234.841 71.3764 234.141 68.3364 234.141 64.8564ZM291.369 72.8964V81.5964H286.149C282.429 81.5964 279.529 80.6964 277.449 78.8964C275.369 77.0564 274.329 74.0764 274.329 69.9564V56.6364H270.249V48.1164H274.329V39.9564H284.589V48.1164H291.309V56.6364H284.589V70.0764C284.589 71.0764 284.829 71.7964 285.309 72.2364C285.789 72.6764 286.589 72.8964 287.709 72.8964H291.369ZM310.904 82.0764C307.984 82.0764 305.384 81.5764 303.104 80.5764C300.824 79.5764 299.024 78.2164 297.704 76.4964C296.384 74.7364 295.644 72.7764 295.484 70.6164H305.624C305.744 71.7764 306.284 72.7164 307.244 73.4364C308.204 74.1564 309.384 74.5164 310.784 74.5164C312.064 74.5164 313.044 74.2764 313.724 73.7964C314.444 73.2764 314.804 72.6164 314.804 71.8164C314.804 70.8564 314.304 70.1564 313.304 69.7164C312.304 69.2364 310.684 68.7164 308.444 68.1564C306.044 67.5964 304.044 67.0164 302.444 66.4164C300.844 65.7764 299.464 64.7964 298.304 63.4764C297.144 62.1164 296.564 60.2964 296.564 58.0164C296.564 56.0964 297.084 54.3564 298.124 52.7964C299.204 51.1964 300.764 49.9364 302.804 49.0164C304.884 48.0964 307.344 47.6364 310.184 47.6364C314.384 47.6364 317.684 48.6764 320.084 50.7564C322.524 52.8364 323.924 55.5964 324.284 59.0364H314.804C314.644 57.8764 314.124 56.9564 313.244 56.2764C312.404 55.5964 311.284 55.2564 309.884 55.2564C308.684 55.2564 307.764 55.4964 307.124 55.9764C306.484 56.4164 306.164 57.0364 306.164 57.8364C306.164 58.7964 306.664 59.5164 307.664 59.9964C308.704 60.4764 310.304 60.9564 312.464 61.4364C314.944 62.0764 316.964 62.7164 318.524 63.3564C320.084 63.9564 321.444 64.9564 322.604 66.3564C323.804 67.7164 324.424 69.5564 324.464 71.8764C324.464 73.8364 323.904 75.5964 322.784 77.1564C321.704 78.6764 320.124 79.8764 318.044 80.7564C316.004 81.6364 313.624 82.0764 310.904 82.0764Z" fill="#706FE5"/>
<rect x="15" y="15" width="346" height="101" stroke="#706FE5" stroke-width="8"/>
<circle cx="14" cy="118" r="10" fill="white" stroke="#706FE5" stroke-width="8"/>
<circle cx="360" cy="118" r="10" fill="white" stroke="#706FE5" stroke-width="8"/>
<circle cx="14" cy="14" r="10" fill="white" stroke="#706FE5" stroke-width="8"/>
<circle cx="360" cy="14" r="10" fill="white" stroke="#706FE5" stroke-width="8"/>
</svg>
