<svg width="101" height="72" viewBox="0 0 101 72" fill="none" xmlns="http://www.w3.org/2000/svg">
<ellipse cx="3.49452" cy="3.00384" rx="2.53871" ry="2.62469" fill="#706FE5"/>
<ellipse cx="3.49452" cy="46.7883" rx="2.53871" ry="2.62469" fill="#706FE5"/>
<ellipse cx="41.4635" cy="3.00384" rx="2.53871" ry="2.62469" fill="#706FE5"/>
<ellipse cx="41.4638" cy="46.7883" rx="2.53871" ry="2.62469" fill="#706FE5"/>
<ellipse cx="79.4328" cy="3.00378" rx="2.53871" ry="2.62469" fill="#706FE5"/>
<ellipse cx="79.4325" cy="46.7883" rx="2.53871" ry="2.62469" fill="#706FE5"/>
<ellipse cx="3.49452" cy="24.8959" rx="2.53871" ry="2.62469" fill="#706FE5"/>
<ellipse cx="3.49452" cy="68.6801" rx="2.53871" ry="2.62469" fill="#706FE5"/>
<ellipse cx="41.4635" cy="24.896" rx="2.53871" ry="2.62469" fill="#706FE5"/>
<ellipse cx="41.4635" cy="68.6802" rx="2.53871" ry="2.62469" fill="#706FE5"/>
<ellipse cx="79.4328" cy="24.8959" rx="2.53871" ry="2.62469" fill="#706FE5"/>
<ellipse cx="79.4328" cy="68.6801" rx="2.53871" ry="2.62469" fill="#706FE5"/>
<ellipse cx="22.4791" cy="3.00384" rx="2.53871" ry="2.62469" fill="#706FE5"/>
<ellipse cx="22.4791" cy="46.7883" rx="2.53871" ry="2.62469" fill="#706FE5"/>
<ellipse cx="60.4481" cy="3.00372" rx="2.53871" ry="2.62469" fill="#706FE5"/>
<ellipse cx="60.4484" cy="46.7882" rx="2.53871" ry="2.62469" fill="#706FE5"/>
<ellipse cx="98.4169" cy="3.0039" rx="2.53871" ry="2.62469" fill="#706FE5"/>
<ellipse cx="98.4169" cy="46.7883" rx="2.53871" ry="2.62469" fill="#706FE5"/>
<ellipse cx="22.4791" cy="24.8959" rx="2.53871" ry="2.62469" fill="#706FE5"/>
<ellipse cx="22.4791" cy="68.6801" rx="2.53871" ry="2.62469" fill="#706FE5"/>
<ellipse cx="60.4481" cy="24.8959" rx="2.53871" ry="2.62469" fill="#706FE5"/>
<ellipse cx="60.4481" cy="68.6801" rx="2.53871" ry="2.62469" fill="#706FE5"/>
<ellipse cx="98.4171" cy="24.8959" rx="2.53871" ry="2.62469" fill="#706FE5"/>
<ellipse cx="98.4171" cy="68.6801" rx="2.53871" ry="2.62469" fill="#706FE5"/>
</svg>
