<svg width="94" height="38" fill="none" xmlns="http://www.w3.org/2000/svg"><path d="M15.592 16.688v-4.224h2.232c1.632 0 2.328.816 2.328 2.112 0 1.296-.696 2.112-2.328 2.112h-2.232zm8.736-2.112c0-3.096-2.064-5.424-6.192-5.424h-6.648V26h4.104v-6.048h2.544c4.296 0 6.192-2.592 6.192-5.376zm15.316 4.728c0-4.248-3.024-6.888-6.96-6.888-3.912 0-6.96 2.64-6.96 6.888 0 4.248 2.976 6.888 6.912 6.888s7.008-2.64 7.008-6.888zm-9.744 0c0-2.28 1.296-3.336 2.784-3.336 1.44 0 2.784 1.056 2.784 3.336 0 2.256-1.368 3.336-2.832 3.336-1.488 0-2.736-1.08-2.736-3.336zM44.152 26h4.512l2.184-8.688L52.96 26h4.536l3.624-13.392h-3.864l-1.872 9.528-2.28-9.528H48.76l-2.256 9.576-1.896-9.576h-4.104L44.152 26zm24.512-10.296c1.368 0 2.52.84 2.52 2.304h-5.136c.24-1.488 1.272-2.304 2.616-2.304zm6.408 5.856h-4.368c-.336.72-.984 1.296-2.136 1.296-1.32 0-2.4-.816-2.544-2.568h9.288c.048-.408.072-.816.072-1.2 0-4.08-2.76-6.672-6.672-6.672-3.984 0-6.768 2.64-6.768 6.888 0 4.248 2.832 6.888 6.768 6.888 3.336 0 5.712-2.016 6.36-4.632zm6.656-1.776c0-2.304 1.128-2.976 3.072-2.976h1.128v-4.344c-1.8 0-3.264.96-4.2 2.376v-2.232h-4.104V26h4.104v-6.216z" fill="#fff"/><circle cx="91" cy="24" r="3" fill="#706FE5"/><path d="M16 30a8 8 0 11-8-8v8h8z" fill="#706FE5"/></svg>