<svg width="50" height="39" fill="none" xmlns="http://www.w3.org/2000/svg"><path d="M22.554.8l-7.5 26-2.7-10.8c3.333 0 6.067.967 8.2 2.9 2.133 1.933 3.2 4.6 3.2 8 0 3.4-1.1 6.133-3.3 8.2-2.133 2-4.833 3-8.1 3-3.267 0-6-1-8.2-3-2.133-2.067-3.2-4.8-3.2-8.2 0-.933.067-1.867.2-2.8.2-.933.533-2.067 1-3.4.467-1.333 1.167-3.067 2.1-5.2l6.4-14.7h11.9zm26.2 0l-7.5 26-2.7-10.8c3.333 0 6.067.967 8.2 2.9 2.133 1.933 3.2 4.6 3.2 8 0 3.4-1.1 6.133-3.3 8.2-2.133 2-4.833 3-8.1 3-3.267 0-6-1-8.2-3-2.133-2.067-3.2-4.8-3.2-8.2 0-.933.067-1.867.2-2.8.2-.933.533-2.067 1-3.4.467-1.333 1.167-3.067 2.1-5.2l6.4-14.7h11.9z" fill="#706FE5"/></svg>