<svg width="101" height="72" fill="none" xmlns="http://www.w3.org/2000/svg"><ellipse cx="3.495" cy="3.004" rx="2.539" ry="2.625" fill="#706FE5"/><ellipse cx="3.495" cy="46.788" rx="2.539" ry="2.625" fill="#706FE5"/><ellipse cx="41.464" cy="3.004" rx="2.539" ry="2.625" fill="#706FE5"/><ellipse cx="41.464" cy="46.788" rx="2.539" ry="2.625" fill="#706FE5"/><ellipse cx="79.433" cy="3.004" rx="2.539" ry="2.625" fill="#706FE5"/><ellipse cx="79.433" cy="46.788" rx="2.539" ry="2.625" fill="#706FE5"/><ellipse cx="3.495" cy="24.896" rx="2.539" ry="2.625" fill="#706FE5"/><ellipse cx="3.495" cy="68.68" rx="2.539" ry="2.625" fill="#706FE5"/><ellipse cx="41.464" cy="24.896" rx="2.539" ry="2.625" fill="#706FE5"/><ellipse cx="41.464" cy="68.68" rx="2.539" ry="2.625" fill="#706FE5"/><ellipse cx="79.433" cy="24.896" rx="2.539" ry="2.625" fill="#706FE5"/><ellipse cx="79.433" cy="68.68" rx="2.539" ry="2.625" fill="#706FE5"/><ellipse cx="22.479" cy="3.004" rx="2.539" ry="2.625" fill="#706FE5"/><ellipse cx="22.479" cy="46.788" rx="2.539" ry="2.625" fill="#706FE5"/><ellipse cx="60.448" cy="3.004" rx="2.539" ry="2.625" fill="#706FE5"/><ellipse cx="60.448" cy="46.788" rx="2.539" ry="2.625" fill="#706FE5"/><ellipse cx="98.417" cy="3.004" rx="2.539" ry="2.625" fill="#706FE5"/><ellipse cx="98.417" cy="46.788" rx="2.539" ry="2.625" fill="#706FE5"/><ellipse cx="22.479" cy="24.896" rx="2.539" ry="2.625" fill="#706FE5"/><ellipse cx="22.479" cy="68.68" rx="2.539" ry="2.625" fill="#706FE5"/><ellipse cx="60.448" cy="24.896" rx="2.539" ry="2.625" fill="#706FE5"/><ellipse cx="60.448" cy="68.68" rx="2.539" ry="2.625" fill="#706FE5"/><ellipse cx="98.417" cy="24.896" rx="2.539" ry="2.625" fill="#706FE5"/><ellipse cx="98.417" cy="68.68" rx="2.539" ry="2.625" fill="#706FE5"/></svg>